# xmcd
#
# Track frame offsets: 
#        150
#        17175
#        36400
#        54601
#        70923
#        88805
#        104254
#        121884
#        144916
#        162123
#        178652
#        195843
#        221564
#        236006
#        262041
#        280471
#        297333
#        324720
#
# Disc length: 4607 seconds
#
# Revision: 0
# Processed by: cddbd v1.5.2PL0 Copyright (c) Steve Scherf et al.
# Submitted via: ExactAudioCopy v0.99pb5
#
DISCID=1211fd12
DTITLE=Colbie Caillat - Breakthrough
DYEAR=2009
DGENRE=
TTITLE0=I Won't
TTITLE1=Begin Again
TTITLE2=You Got Me
TTITLE3=Fallin' For You
TTITLE4=Rainbow
TTITLE5=Droplets
TTITLE6=I Never Told You
TTITLE7=Fearless
TTITLE8=Runnin' Around
TTITLE9=Break Through
TTITLE10=It Stops Today
TTITLE11=Breakin' At The Cracks
TTITLE12=Lucky
TTITLE13=Realize
TTITLE14=Fallin' for You
TTITLE15=Bubbly
TTITLE16=Fearless
TTITLE17=Little Things
EXTD=
EXTT0=
EXTT1=
EXTT2=
EXTT3=
EXTT4=
EXTT5=
EXTT6=
EXTT7=
EXTT8=
EXTT9=
EXTT10=
EXTT11=
EXTT12=
EXTT13=
EXTT14=
EXTT15=
EXTT16=
EXTT17=
PLAYORDER=
